<?xml version="1.0" encoding="utf-8"?>
<!-- Generator: Adobe Illustrator 16.0.0, SVG Export Plug-In . SVG Version: 6.00 Build 0)  -->
<!DOCTYPE svg PUBLIC "-//W3C//DTD SVG 1.1//EN" "http://www.w3.org/Graphics/SVG/1.1/DTD/svg11.dtd">
<svg version="1.1" id="Layer_1" xmlns="http://www.w3.org/2000/svg" xmlns:xlink="http://www.w3.org/1999/xlink" x="0px" y="0px"
	 width="800px" height="800px" viewBox="0 0 800 800" enable-background="new 0 0 800 800" xml:space="preserve">
<path fill="#FFFFFF" d="M596.807,635.767c-5.011,5.01-14.688,3.458-21.613-3.469l-407.491-407.49
	c-6.926-6.926-8.479-16.604-3.468-21.614l38.961-38.961c5.01-5.011,14.687-3.458,21.613,3.468L632.3,575.193
	c6.926,6.926,8.479,16.603,3.468,21.613L596.807,635.767L596.807,635.767z"/>
<path fill="#FFFFFF" d="M203.193,635.767l-38.96-38.96c-5.011-5.011-3.458-14.688,3.467-21.613l407.492-407.492
	c6.926-6.926,16.604-8.479,21.613-3.468l38.961,38.961c5.01,5.01,3.458,14.688-3.469,21.614l-407.49,407.49
	C217.881,639.225,208.206,640.776,203.193,635.767L203.193,635.767z"/>
</svg>
